<?xml version="1.0" standalone="no"?>
<!DOCTYPE svg PUBLIC "-//W3C//DTD SVG 20010904//EN"
 "http://www.w3.org/TR/2001/REC-SVG-20010904/DTD/svg10.dtd">
<svg version="1.0" xmlns="http://www.w3.org/2000/svg"
 width="300.000000pt" height="300.000000pt" viewBox="0 0 300.000000 300.000000"
 preserveAspectRatio="xMidYMid meet">
<metadata>
Created by potrace 1.10, written by Peter Selinger 2001-2011
</metadata>
<g transform="translate(0.000000,300.000000) scale(0.100000,-0.100000)"
fill="#000000" stroke="none">
<path d="M1003 2018 c-23 -24 -23 -27 -23 -324 l0 -301 23 -21 c22 -21 33 -22
178 -22 l154 0 -133 -128 c-73 -70 -132 -133 -132 -141 0 -11 3 -11 18 0 36
28 222 190 404 352 103 92 189 167 191 167 1 0 0 -52 -1 -115 l-4 -115 111 0
111 0 0 115 0 115 85 0 85 0 0 -307 0 -308 -85 0 -85 0 0 118 0 117 -110 0
-110 0 0 -117 0 -118 -86 0 -85 0 3 202 c2 140 0 199 -8 195 -8 -5 -299 -229
-402 -309 -26 -21 -6 -26 28 -8 34 18 130 84 246 172 39 29 76 53 82 53 7 0
12 -50 14 -149 4 -189 5 -191 123 -191 72 0 84 3 103 23 19 20 22 35 22 103 0
43 4 85 9 92 5 9 26 12 67 10 l59 -3 3 -90 c4 -123 15 -135 128 -135 77 0 84
2 103 26 20 26 21 39 21 311 0 352 0 352 -125 352 -106 1 -119 -13 -125 -131
l-5 -93 -65 0 -65 0 -5 90 c-3 50 -8 95 -12 101 -5 7 37 52 105 115 118 110
191 188 183 197 -6 5 -166 -132 -418 -356 -80 -72 -161 -139 -180 -149 -28
-15 -62 -19 -208 -21 l-175 -4 3 307 3 307 173 -4 173 -3 69 -35 c111 -57 174
-167 161 -282 -6 -44 3 -62 18 -39 3 5 84 71 179 145 96 75 178 141 182 147
14 24 -78 -21 -131 -64 -5 -4 -52 -40 -104 -78 -101 -75 -103 -76 -115 -6 -16
87 -87 171 -186 220 -64 32 -66 32 -240 35 -174 4 -175 4 -197 -20z"/>
<path d="M1188 1695 l-3 -155 50 0 c71 0 117 15 151 51 27 28 29 36 29 104 0
64 -3 77 -25 100 -35 38 -80 55 -144 55 l-55 0 -3 -155z m166 74 c25 -28 28
-38 24 -81 -6 -57 -27 -84 -79 -99 -65 -20 -69 -13 -69 104 0 57 3 107 8 111
4 4 25 5 47 3 28 -4 48 -15 69 -38z"/>
</g>
</svg>
