<?xml version="1.0" encoding="UTF-8"?>
<svg version="1.1" xmlns="http://www.w3.org/2000/svg" width="980" height="980">
<path d="M0 0 C323.4 0 646.8 0 980 0 C980 323.4 980 646.8 980 980 C656.6 980 333.2 980 0 980 C0 656.6 0 333.2 0 0 Z " fill="#060201" transform="translate(0,0)"/>
<path d="M0 0 C132.06964619 0 132.06964619 0 165.28515625 32.19921875 C175.36299625 42.59606951 183.45442426 56.86497138 187 71 C187.27585937 71.97710937 187.55171875 72.95421875 187.8359375 73.9609375 C189.91410866 82.44521425 190.28612705 90.60390517 190.3125 99.3125 C190.32059692 100.95786743 190.32059692 100.95786743 190.32885742 102.63647461 C190.2707741 109.31201594 189.58862676 115.51363787 188 122 C197.72194588 114.73662067 207.39759495 107.42058517 217 100 C219.08283807 98.39519034 221.16617996 96.79103438 223.25 95.1875 C223.7761792 94.78257324 224.3023584 94.37764648 224.84448242 93.96044922 C230.12191154 89.9016136 235.41221596 85.85965581 240.70214844 81.81713867 C246.02487013 77.7485459 251.33670726 73.66613851 256.64453125 69.578125 C259.07534174 67.70815857 261.51109035 65.84478955 263.94921875 63.984375 C271.325529 58.35580991 278.6815088 52.70360542 286 47 C287.49079791 45.84103326 288.9816834 44.68217917 290.47265625 43.5234375 C292.78477589 41.72629683 295.09422312 39.92605663 297.39794922 38.11816406 C299.73956333 36.28072978 302.08791819 34.45222843 304.4375 32.625 C305.51161133 31.77615234 305.51161133 31.77615234 306.60742188 30.91015625 C307.27193359 30.39582031 307.93644531 29.88148438 308.62109375 29.3515625 C309.2030249 28.89604004 309.78495605 28.44051758 310.38452148 27.97119141 C312 27 312 27 315 27 C302.04282933 39.02883679 302.04282933 39.02883679 295.93359375 44.3125 C293.72147948 46.24307245 291.5491109 48.21423889 289.375 50.1875 C285.3945598 53.7845033 281.33961703 57.27899475 277.25 60.75 C271.70222651 65.46261665 266.35531866 70.35290869 261.05541992 75.34130859 C256.65808986 79.45459911 252.09048945 83.25023652 247.390625 87.015625 C244.63408283 89.30373516 242.14914099 91.76066876 239.66015625 94.33203125 C237.29441782 96.70890257 234.76259999 98.87101215 232.22265625 101.05859375 C229.67023117 103.28804061 227.18112486 105.58001382 224.6875 107.875 C220.98857493 111.25628885 217.21927916 114.48659015 213.3125 117.625 C210.02247683 120.27749393 206.94262071 122.96748253 204 126 C201.13498405 128.95183462 198.15265338 131.55855945 194.9375 134.125 C189.49411517 138.49183797 184.42554646 143.1911356 179.34863281 147.97583008 C175.58374548 151.52388385 171.7846269 155.00726443 167.86328125 158.3828125 C165.67071856 160.28579144 163.52445653 162.23597404 161.375 164.1875 C155.58112168 169.41721397 149.65687869 174.49280937 143.703125 179.5390625 C142.54061413 180.53626219 141.38995611 181.54740545 140.25 182.5703125 C105.42414444 213.53520847 31.76148224 200 0 200 C0 134 0 68 0 0 Z " fill="#FBFBFB" transform="translate(332,326)"/>
<path d="M0 0 C0 24.75 0 49.5 0 75 C23.1 75 46.2 75 70 75 C70 50.58 70 26.16 70 1 C88.48 1 106.96 1 126 1 C126 67 126 133 126 201 C107.52 201 89.04 201 70 201 C70 175.92 70 150.84 70 125 C46.9 125 23.8 125 0 125 C0 150.08 0 175.16 0 201 C-18.48 201 -36.96 201 -56 201 C-56 158.1 -56 115.2 -56 71 C-64.1196109 76.79972207 -72.08439735 82.55277183 -79.94921875 88.65625 C-82.6024841 90.69461006 -85.28261505 92.67361805 -88 94.625 C-93.41025142 98.52541381 -98.70322253 102.57222056 -104 106.625 C-110.78649882 111.815878 -117.60661481 116.95191653 -124.5 122 C-132.12449634 127.58438529 -139.65075089 133.28815751 -147.15527344 139.0324707 C-152.97577512 143.47961372 -158.84184982 147.85760414 -164.75 152.1875 C-170.95690012 156.73974464 -177.12907787 161.33262872 -183.25 166 C-183.92901367 166.5158667 -184.60802734 167.0317334 -185.30761719 167.56323242 C-189.66876659 170.90261128 -193.85680211 174.39348578 -198 178 C-198.66 177.67 -199.32 177.34 -200 177 C-189.54918033 167.45210041 -189.54918033 167.45210041 -185 163.5 C-181.79100756 160.71185902 -178.64083556 157.86471815 -175.5 155 C-171.71337002 151.54671847 -167.8952368 148.13900949 -164.02734375 144.77734375 C-161.66510827 142.70640513 -159.33204147 140.60487152 -157 138.5 C-153.3743171 135.22804226 -149.71817258 131.99614232 -146.03515625 128.7890625 C-143.81644067 126.83863691 -141.62663229 124.85856303 -139.4375 122.875 C-135.26177469 119.10213946 -131.01628767 115.41929116 -126.75 111.75 C-120.97593154 106.77735642 -115.34960337 101.67046201 -109.78710938 96.46289062 C-106.22021146 93.12479716 -102.61089474 89.85408336 -98.91015625 86.6640625 C-96.63795489 84.68459874 -94.41540128 82.6541683 -92.1875 80.625 C-88.64839998 77.42347567 -85.02896894 74.36853937 -81.3125 71.375 C-77.53247712 68.31700396 -74.04251817 65.16241214 -70.6640625 61.671875 C-68.27513145 59.27172831 -65.7207557 57.0844203 -63.15625 54.875 C-60.80037042 52.82640906 -58.4949254 50.72796998 -56.1875 48.625 C-52.64839998 45.42347567 -49.02896894 42.36853937 -45.3125 39.375 C-41.53100148 36.31581019 -38.04005255 33.15972923 -34.66015625 29.66796875 C-32.29776607 27.29446144 -29.76929648 25.1353429 -27.234375 22.94921875 C-24.62148624 20.66979306 -22.06069979 18.33787647 -19.5 16 C-15.59539273 12.43657201 -11.6501378 8.93087073 -7.65234375 5.47265625 C-6.25551414 4.22772774 -4.93076812 2.90263043 -3.625 1.5625 C-2 0 -2 0 0 0 Z " fill="#FAFAF9" transform="translate(550,457)"/>
<path d="M0 0 C49.2 0 49.2 0 64.3125 14.16796875 C73.65901692 24.15018627 77.54532769 35.51192826 77.3125 49.0625 C77.31572266 50.00416016 77.31894531 50.94582031 77.32226562 51.91601562 C77.21608683 65.7868273 72.42438611 76.90206134 63.10546875 87.06640625 C45.99702527 103.79395674 22.48309457 101 0 101 C0 67.67 0 34.34 0 0 Z " fill="#060302" transform="translate(388,376)"/>
<path d="M0 0 C0.495 0.99 0.495 0.99 1 2 C0.34 2.99 -0.32 3.98 -1 5 C-0.01 5.99 -0.01 5.99 1 7 C-0.98 7.66 -2.96 8.32 -5 9 C-4.34 9 -3.68 9 -3 9 C-3 9.66 -3 10.32 -3 11 C-2.34 11 -1.68 11 -1 11 C-1 11.66 -1 12.32 -1 13 C-0.401875 12.690625 0.19625 12.38125 0.8125 12.0625 C3 11 3 11 6 10 C6.495 11.485 6.495 11.485 7 13 C-2.375 21.47207992 -2.375 21.47207992 -7 25.5 C-12.52068377 30.31119831 -17.94916808 35.22605876 -23.3671875 40.15234375 C-28.6955763 44.98283392 -34.12285689 49.67776231 -39.60302734 54.33374023 C-43.7925556 57.91331411 -47.85391537 61.60788481 -51.875 65.375 C-56.37393869 69.5876795 -60.96191671 73.44370591 -66 77 C-66.99 75.02 -67.98 73.04 -69 71 C-69.495 71.99 -69.495 71.99 -70 73 C-71.32 72.34 -72.64 71.68 -74 71 C-72.515 70.505 -72.515 70.505 -71 70 C-71.99 69.01 -72.98 68.02 -74 67 C-70.31924659 63.2714446 -66.54322194 59.67180991 -62.6875 56.125 C-61.82439209 55.32956787 -61.82439209 55.32956787 -60.94384766 54.51806641 C-57.34975349 51.21497564 -53.71545501 47.96695476 -50.0234375 44.7734375 C-47.48498829 42.54861908 -44.99358224 40.27496681 -42.5 38 C-38.70990918 34.54356229 -34.88943967 31.13156146 -31.015625 27.76953125 C-28.71392236 25.74885044 -26.45235621 23.68687382 -24.1875 21.625 C-20.66989182 18.44240212 -17.07252949 15.40882038 -13.375 12.4375 C-8.59574419 8.57602446 -4.23196205 4.45022943 0 0 Z M-6 11 C-5 13 -5 13 -5 13 Z M-11 12 C-11 13.65 -11 15.3 -11 17 C-9.35 16.34 -7.7 15.68 -6 15 C-6.33 14.34 -6.66 13.68 -7 13 C-7.66 13 -8.32 13 -9 13 C-9.66 12.67 -10.32 12.34 -11 12 Z " fill="#0A0A09" transform="translate(541,446)"/>
<path d="M0 0 C0.99 0.495 0.99 0.495 2 1 C-10.95717067 13.02883679 -10.95717067 13.02883679 -17.06640625 18.3125 C-19.27852052 20.24307245 -21.4508891 22.21423889 -23.625 24.1875 C-27.6054402 27.7845033 -31.66038297 31.27899475 -35.75 34.75 C-41.29777349 39.46261665 -46.64468134 44.35290869 -51.94458008 49.34130859 C-56.34191014 53.45459911 -60.90951055 57.25023652 -65.609375 61.015625 C-68.36591717 63.30373516 -70.85085901 65.76066876 -73.33984375 68.33203125 C-75.70558218 70.70890257 -78.23740001 72.87101215 -80.77734375 75.05859375 C-83.32976883 77.28804061 -85.81887514 79.58001382 -88.3125 81.875 C-94.56842582 87.58124196 -100.94405231 93.29603487 -108 98 C-108.66 96.68 -109.32 95.36 -110 94 C-109.34 93.01 -108.68 92.02 -108 91 C-108.66 90.67 -109.32 90.34 -110 90 C-109.34 90 -108.68 90 -108 90 C-108 89.34 -108 88.68 -108 88 C-108.99 87.34 -109.98 86.68 -111 86 C-102.60131752 78.97993494 -93.95351129 72.32295893 -85.23925781 65.70263672 C-81.57063256 62.91316959 -77.91044549 60.11268698 -74.25 57.3125 C-73.5389209 56.76883789 -72.8278418 56.22517578 -72.09521484 55.66503906 C-66.84052951 51.64653577 -61.5963681 47.61459407 -56.35546875 43.578125 C-53.92465826 41.70815857 -51.48890965 39.84478955 -49.05078125 37.984375 C-40.92460542 31.7836177 -32.82920665 25.54637292 -24.76904297 19.26000977 C-18.61558243 14.46569062 -12.42506735 9.72113743 -6.21679688 4.99804688 C-5.54583984 4.48693359 -4.87488281 3.97582031 -4.18359375 3.44921875 C-3.59118896 2.99893311 -2.99878418 2.54864746 -2.38842773 2.0847168 C-1.02190496 1.06253427 -1.02190496 1.06253427 0 0 Z M-113 87 C-112.34 87.33 -111.68 87.66 -111 88 C-111.625 90.8125 -111.625 90.8125 -113 94 C-115.9375 95.75 -115.9375 95.75 -119 97 C-119.99 97.66 -120.98 98.32 -122 99 C-122.28125 96.73828125 -122.28125 96.73828125 -122 94 C-120.03125 91.98046875 -120.03125 91.98046875 -117.5 90.1875 C-116.6646875 89.58292969 -115.829375 88.97835938 -114.96875 88.35546875 C-114.3190625 87.90816406 -113.669375 87.46085937 -113 87 Z " fill="#F4F4F3" transform="translate(645,352)"/>
<path d="M0 0 C0.99 0.495 0.99 0.495 2 1 C0.6859849 2.68193932 -0.65407903 4.34348188 -2 6 C-2.79857422 7.01126953 -2.79857422 7.01126953 -3.61328125 8.04296875 C-7.18816517 12.39465672 -9.46114488 14.45427299 -15 16 C-16.1500831 17.96672915 -16.1500831 17.96672915 -17 20 C-18.31647119 20.69937532 -19.65022151 21.36729133 -21 22 C-21.99 23.485 -21.99 23.485 -23 25 C-21.515 25.495 -21.515 25.495 -20 26 C-19.21625 25.360625 -18.4325 24.72125 -17.625 24.0625 C-14.70992996 21.77208782 -13.5920739 21.58947727 -10 22 C-13.69403562 26.03698323 -18.02544452 29.0595234 -22.4375 32.25 C-29.52259685 37.41872599 -36.53864185 42.66582937 -43.5 48 C-50.28420268 53.19392991 -57.1095059 58.32289527 -64 63.375 C-78.84563331 74.25063348 -78.84563331 74.25063348 -93 86 C-93.66 85.67 -94.32 85.34 -95 85 C-84.54918033 75.45210041 -84.54918033 75.45210041 -80 71.5 C-76.79100756 68.71185902 -73.64083556 65.86471815 -70.5 63 C-66.71337002 59.54671847 -62.8952368 56.13900949 -59.02734375 52.77734375 C-56.66510827 50.70640513 -54.33204147 48.60487152 -52 46.5 C-48.3743171 43.22804226 -44.71817258 39.99614232 -41.03515625 36.7890625 C-38.81644067 34.83863691 -36.62663229 32.85856303 -34.4375 30.875 C-30.26177581 27.10214047 -26.01631962 23.41925338 -21.75 19.75 C-14.32234837 13.35423083 -7.13595907 6.71813713 0 0 Z " fill="#F0F0EE" transform="translate(445,549)"/>
<path d="M0 0 C0.99 0.495 0.99 0.495 2 1 C-10.95717067 13.02883679 -10.95717067 13.02883679 -17.06640625 18.3125 C-19.27852052 20.24307245 -21.4508891 22.21423889 -23.625 24.1875 C-27.60544538 27.78450798 -31.66047369 31.27888158 -35.75 34.75 C-43.04070901 40.94629572 -50.0373713 47.43946839 -57 54 C-58.32 53.01 -59.64 52.02 -61 51 C-61 51.33 -61 51.66 -61 52 C-62.65 52 -64.3 52 -66 52 C-62.23090359 48.02988511 -58.22603521 44.78872054 -53.8125 41.5625 C-47.75143205 37.07579957 -41.75601614 32.51635613 -35.8125 27.875 C-34.67482178 26.98711792 -34.67482178 26.98711792 -33.51416016 26.08129883 C-32.031833 24.92440359 -30.54957183 23.76742378 -29.06738281 22.61035156 C-26.11645382 20.31177721 -23.15395297 18.02848737 -20.1875 15.75 C-19.17558594 14.97269531 -18.16367187 14.19539063 -17.12109375 13.39453125 C-15.48205636 12.137047 -13.84298674 10.87960468 -12.20361328 9.62255859 C-10.97707749 8.68192407 -9.75075522 7.74101107 -8.5246582 6.79980469 C-7.36614335 5.91047839 -6.2071478 5.02177782 -5.04760742 4.13378906 C-2.43115303 2.17531019 -2.43115303 2.17531019 0 0 Z " fill="#EBEAE8" transform="translate(645,352)"/>
<path d="M0 0 C0.99 0.33 1.98 0.66 3 1 C3.495 2.485 3.495 2.485 4 4 C-5.46097449 11.40625168 -14.93479055 18.78602442 -24.60742188 25.91503906 C-28.90103331 29.0999608 -32.98359265 32.47227222 -37 36 C-37.66 35.67 -38.32 35.34 -39 35 C-28.54918033 25.45210041 -28.54918033 25.45210041 -24 21.5 C-19.83592935 17.88203698 -15.77041076 14.15894018 -11.6953125 10.44140625 C-8.64919869 7.68224519 -5.56565099 4.97020749 -2.4609375 2.27734375 C-1.61953273 1.54167701 -0.79030613 0.79030613 0 0 Z " fill="#EFEFED" transform="translate(389,599)"/>
<path d="M0 0 C0.66 0.33 1.32 0.66 2 1 C-11.04367885 13.10914698 -11.04367885 13.10914698 -17.01953125 18.26953125 C-20.35913878 21.18757096 -23.62389965 24.18901052 -26.8984375 27.1796875 C-29 29 -29 29 -31 30 C-31.33 28.35 -31.66 26.7 -32 25 C-22.459052 17.56762889 -12.91304059 10.14318837 -3.30859375 2.79296875 C-1.15833336 1.19991086 -1.15833336 1.19991086 0 0 Z " fill="#E2E1DF" transform="translate(645,352)"/>
<path d="M0 0 C0.66 0.33 1.32 0.66 2 1 C1.401875 1.721875 0.80375 2.44375 0.1875 3.1875 C-1.7757602 5.71169168 -3.3695199 8.25782892 -5 11 C-5.66 11.66 -6.32 12.32 -7 13 C-7 12.34 -7 11.68 -7 11 C-7.66 11 -8.32 11 -9 11 C-10.10836423 12.88316159 -10.10836423 12.88316159 -11 15 C-10.67 15.66 -10.34 16.32 -10 17 C-10.99 17.66 -11.98 18.32 -13 19 C-13.33 19.99 -13.66 20.98 -14 22 C-14.66 21.67 -15.32 21.34 -16 21 C-16 20.34 -16 19.68 -16 19 C-17.32 20.32 -18.64 21.64 -20 23 C-20.66 22.01 -21.32 21.02 -22 20 C-14.73110732 13.25914126 -7.44811358 6.54356232 0 0 Z " fill="#090706" transform="translate(613,382)"/>
<path d="M0 0 C0.66 0.33 1.32 0.66 2 1 C0.6859849 2.68193932 -0.65407903 4.34348188 -2 6 C-2.79857422 7.01126953 -2.79857422 7.01126953 -3.61328125 8.04296875 C-7.18816517 12.39465672 -9.46114488 14.45427299 -15 16 C-16.1500831 17.96672915 -16.1500831 17.96672915 -17 20 C-18.33333333 20.66666667 -19.66666667 21.33333333 -21 22 C-21.28875 22.680625 -21.5775 23.36125 -21.875 24.0625 C-22.24625 24.701875 -22.6175 25.34125 -23 26 C-26.125 26.75 -26.125 26.75 -29 27 C-25.15498075 23.10429311 -21.20276973 19.34451669 -17.1875 15.625 C-16.57165039 15.05354248 -15.95580078 14.48208496 -15.32128906 13.89331055 C-11.42163609 10.28546485 -7.4840645 6.73088148 -3.453125 3.26953125 C-2.25939375 2.22662089 -1.12086045 1.12086045 0 0 Z " fill="#E9E8E9" transform="translate(445,549)"/>
<path d="M0 0 C0.33 0.99 0.66 1.98 1 3 C0.21625 3.45375 -0.5675 3.9075 -1.375 4.375 C-4.03698031 5.88428742 -4.03698031 5.88428742 -6 8 C-6.73605469 8.27585937 -7.47210937 8.55171875 -8.23046875 8.8359375 C-11.65809321 10.27660335 -14.40070933 12.36066703 -17.3125 14.625 C-17.86228516 15.04523438 -18.41207031 15.46546875 -18.97851562 15.8984375 C-20.32292168 16.92720039 -21.66201413 17.9629009 -23 19 C-23 16 -23 16 -22 13 C-20.22320953 12.03084156 -18.44550092 11.06314393 -16.65625 10.1171875 C-14.28977075 8.52093027 -13.67717466 6.70869866 -13 4 C-11.35 4 -9.7 4 -8 4 C-8 4.66 -8 5.32 -8 6 C-5.36 4.02 -2.72 2.04 0 0 Z " fill="#181514" transform="translate(655,344)"/>
<path d="M0 0 C0.66 0.33 1.32 0.66 2 1 C1.67 1.99 1.34 2.98 1 4 C-0.32 3.67 -1.64 3.34 -3 3 C-2.01 2.01 -1.02 1.02 0 0 Z M-5 4 C-4.34 4.33 -3.68 4.66 -3 5 C-3.625 7.8125 -3.625 7.8125 -5 11 C-7.9375 12.75 -7.9375 12.75 -11 14 C-11.99 14.66 -12.98 15.32 -14 16 C-14.28125 13.73828125 -14.28125 13.73828125 -14 11 C-12.03125 8.98046875 -12.03125 8.98046875 -9.5 7.1875 C-8.6646875 6.58292969 -7.829375 5.97835938 -6.96875 5.35546875 C-6.3190625 4.90816406 -5.669375 4.46085937 -5 4 Z " fill="#ECEBEC" transform="translate(537,435)"/>
<path d="M0 0 C0 0.99 0 1.98 0 3 C-2.14684051 4.89672317 -4.27061587 6.60874487 -6.5625 8.3125 C-7.84852209 9.2931364 -9.13368743 10.27489742 -10.41796875 11.2578125 C-11.34681885 11.96405762 -11.34681885 11.96405762 -12.29443359 12.68457031 C-15.30271438 15.00472732 -18.15040779 17.48964496 -21 20 C-21.66 19.67 -22.32 19.34 -23 19 C-19.34148491 15.65756985 -15.67395372 12.32543637 -12 9 C-10.82630859 7.93458984 -10.82630859 7.93458984 -9.62890625 6.84765625 C-8.94699219 6.23792969 -8.26507813 5.62820313 -7.5625 5 C-6.96566406 4.46375 -6.36882812 3.9275 -5.75390625 3.375 C-3.92596242 1.94195718 -2.10785287 0.96358988 0 0 Z " fill="#C7C5C3" transform="translate(373,615)"/>
<path d="M0 0 C0.66 0.99 1.32 1.98 2 3 C0.40423801 4.50893816 -1.20189911 6.00691076 -2.8125 7.5 C-3.70582031 8.3353125 -4.59914063 9.170625 -5.51953125 10.03125 C-8 12 -8 12 -11 12 C-10.67 11.01 -10.34 10.02 -10 9 C-10.33 8.67 -10.66 8.34 -11 8 C-10.38125 7.71125 -9.7625 7.4225 -9.125 7.125 C-6.86674235 6.06279958 -6.86674235 6.06279958 -5 4 C-5 3.34 -5 2.68 -5 2 C-3.68 2 -2.36 2 -1 2 C-0.67 1.34 -0.34 0.68 0 0 Z " fill="#E8E8E8" transform="translate(532,451)"/>
<path d="M0 0 C0.66 0.33 1.32 0.66 2 1 C2.33 1.99 2.66 2.98 3 4 C1.59447701 5.03612271 0.17508306 6.05344925 -1.25 7.0625 C-2.43335938 7.91521484 -2.43335938 7.91521484 -3.640625 8.78515625 C-6 10 -6 10 -10 9 C-6.7 6.03 -3.4 3.06 0 0 Z " fill="#E0DFDD" transform="translate(380,607)"/>
<path d="M0 0 C0.5775 0.226875 1.155 0.45375 1.75 0.6875 C1.09 0.6875 0.43 0.6875 -0.25 0.6875 C-0.353125 1.285625 -0.45625 1.88375 -0.5625 2.5 C-1.36316103 5.04755783 -2.11057532 6.10274098 -4.25 7.6875 C-5.57 7.6875 -6.89 7.6875 -8.25 7.6875 C-6.86345583 3.41232214 -5.12511737 -0.71182186 0 0 Z " fill="#F0EFED" transform="translate(614.25,378.3125)"/>
<path d="M0 0 C0.33 0.99 0.66 1.98 1 3 C0.21625 3.45375 -0.5675 3.9075 -1.375 4.375 C-4.03698031 5.88428742 -4.03698031 5.88428742 -6 8 C-8.9375 8.75 -8.9375 8.75 -12 9 C-12.99 8.34 -13.98 7.68 -15 7 C-13.75 5.5 -13.75 5.5 -12 4 C-10.68 4 -9.36 4 -8 4 C-8 4.66 -8 5.32 -8 6 C-5.36 4.02 -2.72 2.04 0 0 Z " fill="#2C2827" transform="translate(655,344)"/>
<path d="M0 0 C0.66 0.99 1.32 1.98 2 3 C1.360625 3.268125 0.72125 3.53625 0.0625 3.8125 C-2.33131686 4.88667752 -2.33131686 4.88667752 -3 8 C-2.67 8.66 -2.34 9.32 -2 10 C-4.31 10 -6.62 10 -9 10 C-9 9.01 -9 8.02 -9 7 C-7.03125 5.17578125 -7.03125 5.17578125 -4.5 3.3125 C-3.6646875 2.68988281 -2.829375 2.06726563 -1.96875 1.42578125 C-1.3190625 0.95527344 -0.669375 0.48476563 0 0 Z " fill="#141313" transform="translate(489,530)"/>
<path d="M0 0 C-0.24967943 3.37067235 -1.20818459 4.19399019 -3.75 6.5625 C-6.38170388 8.60586623 -9.01177026 10.50588513 -12 12 C-12.66 11.67 -13.32 11.34 -14 11 C-12.04709472 9.16056628 -10.08818082 7.32840869 -8.125 5.5 C-7.29162109 4.71302734 -7.29162109 4.71302734 -6.44140625 3.91015625 C-2.2265625 0 -2.2265625 0 0 0 Z " fill="#E7E7E7" transform="translate(509,494)"/>
<path d="M0 0 C0.66 0.33 1.32 0.66 2 1 C-4.435 6.94 -4.435 6.94 -11 13 C-11.99 12.34 -12.98 11.68 -14 11 C-13.07316406 10.28972656 -12.14632812 9.57945312 -11.19140625 8.84765625 C-9.98174158 7.91930895 -8.77210776 6.99092145 -7.5625 6.0625 C-6.95083984 5.59392578 -6.33917969 5.12535156 -5.70898438 4.64257812 C-2.75031115 2.44328176 -2.75031115 2.44328176 0 0 Z " fill="#C7C5C3" transform="translate(645,352)"/>
<path d="M0 0 C0 3.78878033 -1.00307682 5.77650337 -3.375 8.6875 C-6.12518544 10.90880362 -8.53051483 11 -12 11 C-8.04 7.37 -4.08 3.74 0 0 Z " fill="#E2E1E1" transform="translate(490,509)"/>
<path d="M0 0 C0.58265625 0.22558594 1.1653125 0.45117188 1.765625 0.68359375 C-1.34453955 3.97148199 -4.25056425 6.52095363 -8.234375 8.68359375 C-8.564375 7.69359375 -8.894375 6.70359375 -9.234375 5.68359375 C-8.16544282 4.64769037 -7.07859012 3.63025433 -5.984375 2.62109375 C-5.38109375 2.05261719 -4.7778125 1.48414063 -4.15625 0.8984375 C-2.234375 -0.31640625 -2.234375 -0.31640625 0 0 Z " fill="#1D1B1A" transform="translate(606.234375,380.31640625)"/>
<path d="M0 0 C3.125 0.375 3.125 0.375 6 1 C1.375 5.875 1.375 5.875 -2 7 C-2.125 4.625 -2.125 4.625 -2 2 C-1.34 1.34 -0.68 0.68 0 0 Z " fill="#171717" transform="translate(522,441)"/>
<path d="M0 0 C1.98 0 3.96 0 6 0 C4.54744301 3.82946843 2.57104439 5.12050295 -1 7 C-1.66 6.34 -2.32 5.68 -3 5 C-2.34 5 -1.68 5 -1 5 C-0.67 3.35 -0.34 1.7 0 0 Z " fill="#151312" transform="translate(574,401)"/>
<path d="M0 0 C0.33 0.66 0.66 1.32 1 2 C2.32 1.34 3.64 0.68 5 0 C5.33 0.99 5.66 1.98 6 3 C3.69 4.98 1.38 6.96 -1 9 C-1 7.68 -1 6.36 -1 5 C-0.34 5 0.32 5 1 5 C0.67 3.35 0.34 1.7 0 0 Z " fill="#EEEEEE" transform="translate(489,485)"/>
<path d="M0 0 C8.25 0 16.5 0 25 0 C25 0.33 25 0.66 25 1 C24.37955811 1.02505615 23.75911621 1.0501123 23.11987305 1.07592773 C20.30887603 1.19196721 17.49820759 1.31465759 14.6875 1.4375 C13.71103516 1.47681641 12.73457031 1.51613281 11.72851562 1.55664062 C10.79072266 1.59853516 9.85292969 1.64042969 8.88671875 1.68359375 C7.59060669 1.73858032 7.59060669 1.73858032 6.26831055 1.79467773 C3.8352174 1.92747354 3.8352174 1.92747354 1 3 C0.67 2.01 0.34 1.02 0 0 Z " fill="#EFEEEE" transform="translate(388,477)"/>
<path d="M0 0 C0.66 0.33 1.32 0.66 2 1 C2.33 1.99 2.66 2.98 3 4 C0.69 5.98 -1.62 7.96 -4 10 C-3.5205537 5.78087253 -2.83374881 3.20336822 0 0 Z " fill="#E7E5E6" transform="translate(563,421)"/>
<path d="M0 0 C0 0.66 0 1.32 0 2 C-1.96875 3.5078125 -1.96875 3.5078125 -4.5 5.125 C-5.3353125 5.66382813 -6.170625 6.20265625 -7.03125 6.7578125 C-7.6809375 7.16773438 -8.330625 7.57765625 -9 8 C-9 4 -9 4 -7.3125 1.75 C-4.60609252 -0.29809215 -3.31152874 -0.36794764 0 0 Z " fill="#E8E8E8" transform="translate(491,528)"/>
<path d="M0 0 C-0.33 0.99 -0.66 1.98 -1 3 C-1.66 3 -2.32 3 -3 3 C-3.04125 3.61875 -3.0825 4.2375 -3.125 4.875 C-3.41375 5.57625 -3.7025 6.2775 -4 7 C-7.0625 8.25 -7.0625 8.25 -10 9 C-10.33 8.34 -10.66 7.68 -11 7 C-9.54634731 5.82750647 -8.08692581 4.66216184 -6.625 3.5 C-5.40683594 2.52546875 -5.40683594 2.52546875 -4.1640625 1.53125 C-2 0 -2 0 0 0 Z " fill="#E9E7E8" transform="translate(565,415)"/>
<path d="M0 0 C0.99 0.33 1.98 0.66 3 1 C2 3 1 5 0 7 C-1.32 7 -2.64 7 -4 7 C-4.66 6.34 -5.32 5.68 -6 5 C-1.60546875 0.99609375 -1.60546875 0.99609375 0 0 Z " fill="#131110" transform="translate(453,557)"/>
<path d="M0 0 C2.625 0.375 2.625 0.375 5 1 C4.25 2.9375 4.25 2.9375 3 5 C0.875 5.75 0.875 5.75 -1 6 C-1.625 4.125 -1.625 4.125 -2 2 C-1.34 1.34 -0.68 0.68 0 0 Z " fill="#F1F1EF" transform="translate(393,596)"/>
<path d="M0 0 C0.66 0.33 1.32 0.66 2 1 C0.85660573 4.43018282 -0.28411465 5.66132095 -3 8 C-5.75 9.25 -5.75 9.25 -8 10 C-7.59007812 9.52949219 -7.18015625 9.05898438 -6.7578125 8.57421875 C-6.21898437 7.95160156 -5.68015625 7.32898438 -5.125 6.6875 C-4.59132813 6.07261719 -4.05765625 5.45773437 -3.5078125 4.82421875 C-1.8359553 2.86501788 -1.8359553 2.86501788 0 0 Z " fill="#DBD8D9" transform="translate(457,455)"/>
<path d="M0 0 C0.66 0.33 1.32 0.66 2 1 C-4.46813725 9.25245098 -4.46813725 9.25245098 -10 10 C-6.66666667 6.66666667 -3.33333333 3.33333333 0 0 Z " fill="#1F1D1C" transform="translate(613,382)"/>
<path d="M0 0 C0.66 0.33 1.32 0.66 2 1 C0.29040801 3.60937724 -0.95486555 4.97375904 -3.6875 6.5625 C-4.450625 7.036875 -5.21375 7.51125 -6 8 C-6 8.99 -6 9.98 -6 11 C-6.66 11 -7.32 11 -8 11 C-7.91433603 8.087425 -7.42089045 6.43201976 -5.375 4.33203125 C-3.61608625 2.83908228 -1.83686981 1.39563738 0 0 Z " fill="#100F0D" transform="translate(361,626)"/>
<path d="M0 0 C0.66 0.33 1.32 0.66 2 1 C-0.09673857 4.14510786 -2.12969001 6.53973429 -5 9 C-6.32 8.67 -7.64 8.34 -9 8 C-6.03 5.36 -3.06 2.72 0 0 Z " fill="#E0E0E0" transform="translate(425,567)"/>
<path d="M0 0 C0 3.6026412 -1.17803615 4.96901452 -3.48828125 7.63671875 C-5.72852527 9.65699049 -8.10395457 10.32650106 -11 11 C-7.81316569 6.66590534 -4.13621084 3.3810038 0 0 Z " fill="#201F1E" transform="translate(585,407)"/>
<path d="M0 0 C0.99 0.33 1.98 0.66 3 1 C-1.625 6.875 -1.625 6.875 -5 8 C-5 6.68 -5 5.36 -5 4 C-4.01 3.67 -3.02 3.34 -2 3 C-1.34 2.01 -0.68 1.02 0 0 Z " fill="#1B1A18" transform="translate(393,592)"/>
<path d="M0 0 C0.721875 0.103125 1.44375 0.20625 2.1875 0.3125 C-0.56770215 3.27179119 -3.27877288 5.34931826 -6.8125 7.3125 C-7.1425 6.6525 -7.4725 5.9925 -7.8125 5.3125 C-3.50480769 0.38942308 -3.50480769 0.38942308 0 0 Z " fill="#E6E6E5" transform="translate(432.8125,570.6875)"/>
<path d="M0 0 C-1.98 2.97 -1.98 2.97 -4 6 C-4.99 5.67 -5.98 5.34 -7 5 C-6.67 3.35 -6.34 1.7 -6 0 C-2.25 -1.125 -2.25 -1.125 0 0 Z " fill="#0B090A" transform="translate(464,531)"/>
<path d="M0 0 C0.33 0.66 0.66 1.32 1 2 C0.01 3.485 0.01 3.485 -1 5 C-0.34 5.66 0.32 6.32 1 7 C-1.31 7.66 -3.62 8.32 -6 9 C-5.52797514 4.75177626 -3.03344482 2.80010291 0 0 Z " fill="#1A1918" transform="translate(541,446)"/>
<path d="M0 0 C0.66 0.33 1.32 0.66 2 1 C1.67 1.66 1.34 2.32 1 3 C1.99 3.33 2.98 3.66 4 4 C1 6 1 6 -2.1875 5.625 C-3.115625 5.41875 -4.04375 5.2125 -5 5 C-3.35 3.35 -1.7 1.7 0 0 Z " fill="#E5E4E2" transform="translate(605,383)"/>
<path d="M0 0 C0.99 0.33 1.98 0.66 3 1 C3.33 1.99 3.66 2.98 4 4 C1.69 5.65 -0.62 7.3 -3 9 C-3 6 -3 6 -1 3.8125 C-0.34 3.214375 0.32 2.61625 1 2 C0.34 1.67 -0.32 1.34 -1 1 C-0.67 0.67 -0.34 0.34 0 0 Z " fill="#E2E2E0" transform="translate(389,599)"/>
<path d="M0 0 C0.99 0.99 1.98 1.98 3 3 C0.03 5.475 0.03 5.475 -3 8 C-3.66 7.67 -4.32 7.34 -5 7 C-5 6.34 -5 5.68 -5 5 C-4.360625 4.731875 -3.72125 4.46375 -3.0625 4.1875 C-0.66868314 3.11332248 -0.66868314 3.11332248 0 0 Z " fill="#1C1918" transform="translate(384,599)"/>
<path d="M0 0 C0 0.99 0 1.98 0 3 C-2.5 5.1875 -2.5 5.1875 -5 7 C-5.66 6.01 -6.32 5.02 -7 4 C-3.375 0 -3.375 0 0 0 Z " fill="#E6E4E3" transform="translate(548,460)"/>
<path d="M0 0 C0.68707555 2.49064888 1 4.37886292 1 7 C0.34 7 -0.32 7 -1 7 C-0.67 8.32 -0.34 9.64 0 11 C-0.99 11.495 -0.99 11.495 -2 12 C-2.66 11.67 -3.32 11.34 -4 11 C-3.71125 10.29875 -3.4225 9.5975 -3.125 8.875 C-1.97866412 5.94547497 -0.97374346 2.99078347 0 0 Z " fill="#E1E0E0" transform="translate(462,444)"/>
<path d="M0 0 C0.66 0.33 1.32 0.66 2 1 C1.25 6.75 1.25 6.75 -1 9 C-2.1875 6.75 -2.1875 6.75 -3 4 C-1.625 1.6875 -1.625 1.6875 0 0 Z " fill="#141413" transform="translate(460,443)"/>
<path d="M0 0 C0.33 0.99 0.66 1.98 1 3 C-1.3125 4.5625 -1.3125 4.5625 -4 6 C-4.99 5.67 -5.98 5.34 -7 5 C-2.25 0 -2.25 0 0 0 Z " fill="#181516" transform="translate(551,439)"/>
<path d="M0 0 C0.66 0.33 1.32 0.66 2 1 C2 1.99 2 2.98 2 4 C-0.53184488 6.35723489 -1.47190093 7 -5 7 C-3.70700306 4.11562221 -2.34058637 2.12780579 0 0 Z " fill="#171717" transform="translate(558,431)"/>
<path d="M0 0 C-1.65 1.65 -3.3 3.3 -5 5 C-5.99 4.01 -6.98 3.02 -8 2 C-7.34 2 -6.68 2 -6 2 C-6 1.34 -6 0.68 -6 0 C-3 -1 -3 -1 0 0 Z " fill="#171614" transform="translate(378,609)"/>
<path d="M0 0 C0.33 0.66 0.66 1.32 1 2 C-1.31 4.64 -3.62 7.28 -6 10 C-6.99 9.34 -7.98 8.68 -9 8 C-8.43410156 7.50628906 -7.86820312 7.01257813 -7.28515625 6.50390625 C-6.55167969 5.86324219 -5.81820313 5.22257813 -5.0625 4.5625 C-4.33160156 3.92441406 -3.60070312 3.28632812 -2.84765625 2.62890625 C-1.87860647 1.77458541 -0.91348825 0.91348825 0 0 Z " fill="#DDDBDC" transform="translate(463,533)"/>
<path d="M0 0 C0.66 0.99 1.32 1.98 2 3 C-0.31 4.65 -2.62 6.3 -5 8 C-5 6.02 -5 4.04 -5 2 C-3.68 2 -2.36 2 -1 2 C-0.67 1.34 -0.34 0.68 0 0 Z " fill="#E3E2E1" transform="translate(532,451)"/>
<path d="M0 0 C0.66 0.33 1.32 0.66 2 1 C1.67 1.66 1.34 2.32 1 3 C1.66 3.66 2.32 4.32 3 5 C1.02 5.99 1.02 5.99 -1 7 C-1.66 5.68 -2.32 4.36 -3 3 C-2.01 2.01 -1.02 1.02 0 0 Z " fill="#161513" transform="translate(485,496)"/>
<path d="M0 0 C-1.45255699 3.82946843 -3.42895561 5.12050295 -7 7 C-7 6.01 -7 5.02 -7 4 C-2.65714286 0 -2.65714286 0 0 0 Z " fill="#EBE9EA" transform="translate(546,441)"/>
<path d="M0 0 C0.66 0.66 1.32 1.32 2 2 C1.625 4.125 1.625 4.125 1 6 C0.34 5.34 -0.32 4.68 -1 4 C-1 1 -1 1 0 0 Z M-4 3 C-3.34 3.66 -2.68 4.32 -2 5 C-2.33 5.99 -2.66 6.98 -3 8 C-3.33 7.01 -3.66 6.02 -4 5 C-4.66 4.67 -5.32 4.34 -6 4 C-5.34 3.67 -4.68 3.34 -4 3 Z " fill="#FDFCFD" transform="translate(564,418)"/>
<path d="M0 0 C0.99 0.33 1.98 0.66 3 1 C1.75453595 4.73639216 0.36595047 5.18756513 -3 7 C-3.33 6.01 -3.66 5.02 -4 4 C-2.68 2.68 -1.36 1.36 0 0 Z " fill="#1D1918" transform="translate(588,392)"/>
<path d="M0 0 C1.65 0.99 3.3 1.98 5 3 C4.67 4.65 4.34 6.3 4 8 C1.47411298 5.63707344 0.11179163 4.33537489 -1 1 C-0.67 0.67 -0.34 0.34 0 0 Z " fill="#EEEEEE" transform="translate(455,391)"/>
<path d="M0 0 C2.5 2.3125 2.5 2.3125 5 5 C5 5.99 5 6.98 5 8 C4.01 7.34 3.02 6.68 2 6 C2 5.34 2 4.68 2 4 C0.68 4.33 -0.64 4.66 -2 5 C-1.34 3.35 -0.68 1.7 0 0 Z " fill="#E3E3E1" transform="translate(498,360)"/>
<path d="M0 0 C2.64 0.66 5.28 1.32 8 2 C8 2.66 8 3.32 8 4 C8.66 4.33 9.32 4.66 10 5 C7 6 7 6 5.17578125 5.22265625 C3.45052083 4.1484375 1.72526042 3.07421875 0 2 C0 1.34 0 0.68 0 0 Z " fill="#131313" transform="translate(469,337)"/>
<path d="M0 0 C0.66 0.33 1.32 0.66 2 1 C2 1.66 2 2.32 2 3 C2.66 3.33 3.32 3.66 4 4 C2.02 4.99 2.02 4.99 0 6 C-0.99 5.01 -1.98 4.02 -3 3 C-2.01 2.01 -1.02 1.02 0 0 Z " fill="#EDEDEB" transform="translate(415,576)"/>
<path d="M0 0 C-2.93828597 2.50298434 -5.17902761 3.46930939 -9 4 C-8 1 -8 1 -6.1875 -0.25 C-3.66056586 -1.11637742 -2.47778006 -0.88492145 0 0 Z " fill="#040404" transform="translate(478,509)"/>
<path d="M0 0 C0.66 0.99 1.32 1.98 2 3 C-0.475 4.485 -0.475 4.485 -3 6 C-3.99 5.01 -4.98 4.02 -6 3 C-4 2 -2 1 0 0 Z " fill="#161412" transform="translate(546,456)"/>
<path d="M0 0 C1.32 0 2.64 0 4 0 C5.0625 1.8125 5.0625 1.8125 6 4 C5.67 4.99 5.34 5.98 5 7 C3.29115995 5.37660195 1.62553283 3.70680947 0 2 C0 1.34 0 0.68 0 0 Z " fill="#0C0C0B" transform="translate(492,352)"/>
<path d="M0 0 C2.125 0.375 2.125 0.375 4 1 C4 1.99 4 2.98 4 4 C3.01 4.33 2.02 4.66 1 5 C0.01 4.01 -0.98 3.02 -2 2 C-1.34 1.34 -0.68 0.68 0 0 Z " fill="#12110F" transform="translate(486,345)"/>
<path d="M0 0 C-0.125 1.875 -0.125 1.875 -1 4 C-4.0625 5.25 -4.0625 5.25 -7 6 C-5.81636731 2.44910192 -3.99368042 0 0 0 Z " fill="#171616" transform="translate(447,563)"/>
<path d="M0 0 C2 1 2 1 3 3 C1.02 3.66 -0.96 4.32 -3 5 C-3 4.34 -3 3.68 -3 3 C-3.66 2.67 -4.32 2.34 -5 2 C-2.625 0.9375 -2.625 0.9375 0 0 Z " fill="#1F1D1B" transform="translate(453,519)"/>
<path d="M0 0 C2.475 0.99 2.475 0.99 5 2 C1.25 5 1.25 5 -1 5 C-1 4.34 -1 3.68 -1 3 C-1.66 2.67 -2.32 2.34 -3 2 C-2.01 2 -1.02 2 0 2 C0 1.34 0 0.68 0 0 Z " fill="#EDEDEB" transform="translate(455,514)"/>
<path d="M0 0 C-0.1875 1.8125 -0.1875 1.8125 -1 4 C-3.5625 5.75 -3.5625 5.75 -6 7 C-5.39816251 4.97954558 -4.72693904 2.97888961 -4 1 C-2 0 -2 0 0 0 Z " fill="#0F0E0D" transform="translate(637,356)"/>
<path d="M0 0 C0.66 0 1.32 0 2 0 C1.67 1.65 1.34 3.3 1 5 C0.01 5 -0.98 5 -2 5 C-2 2 -2 2 0 0 Z " fill="#161211" transform="translate(594,399)"/>
<path d="M0 0 C-0.66 1.32 -1.32 2.64 -2 4 C-2 3.34 -2 2.68 -2 2 C-2.66 2 -3.32 2 -4 2 C-4.33 2.66 -4.66 3.32 -5 4 C-5.99 4 -6.98 4 -8 4 C-5.52914451 0.29371676 -4.37054922 0 0 0 Z " fill="#131211" transform="translate(608,391)"/>
<path d="M0 0 C1.98 0 3.96 0 6 0 C4.75 2 4.75 2 3 4 C1.68 4 0.36 4 -1 4 C-0.67 2.68 -0.34 1.36 0 0 Z " fill="#F9F9F7" transform="translate(600,388)"/>
<path d="M0 0 C0.99 0.99 1.98 1.98 3 3 C-0.465 4.485 -0.465 4.485 -4 6 C-4 5.01 -4 4.02 -4 3 C-2 1.3125 -2 1.3125 0 0 Z " fill="#1C1A19" transform="translate(369,620)"/>
<path d="M0 0 C0.99 1.32 1.98 2.64 3 4 C0.625 4.625 0.625 4.625 -2 5 C-2.66 4.34 -3.32 3.68 -4 3 C-2.68 2.01 -1.36 1.02 0 0 Z M-4 5 C-2 6 -2 6 -2 6 Z " fill="#151211" transform="translate(388,606)"/>
<path d="M0 0 C0.99 0.33 1.98 0.66 3 1 C0.60490662 3.89932357 -1.31245243 4.50168276 -5 5 C-3.35 3.35 -1.7 1.7 0 0 Z " fill="#191917" transform="translate(425,578)"/>
<path d="M0 0 C0.66 0.33 1.32 0.66 2 1 C1.38125 1.598125 0.7625 2.19625 0.125 2.8125 C-2.13676954 5.00811144 -2.13676954 5.00811144 -4 8 C-4 4 -4 4 -2 1.75 C-1.01 0.88375 -1.01 0.88375 0 0 Z " fill="#E9E9E9" transform="translate(470,527)"/>
<path d="M0 0 C0.66 0 1.32 0 2 0 C2 0.66 2 1.32 2 2 C1.34 2 0.68 2 0 2 C0 1.34 0 0.68 0 0 Z M-3 2 C-2.01 2 -1.02 2 0 2 C-0.33 3.32 -0.66 4.64 -1 6 C-2.32 6 -3.64 6 -5 6 C-5 5.34 -5 4.68 -5 4 C-4.34 4 -3.68 4 -3 4 C-3 3.34 -3 2.68 -3 2 Z " fill="#F4F4F4" transform="translate(493,523)"/>
<path d="M0 0 C0.66 0.33 1.32 0.66 2 1 C1.0022242 3.99332739 0.2477975 4.94766315 -2 7 C-2.99 6.67 -3.98 6.34 -5 6 C-3.35 4.02 -1.7 2.04 0 0 Z " fill="#E1E1E1" transform="translate(517,485)"/>
<path d="M0 0 C0.66 0.99 1.32 1.98 2 3 C0.35 3.33 -1.3 3.66 -3 4 C-2.01 2.68 -1.02 1.36 0 0 Z M-6 5 C-5.34 5.33 -4.68 5.66 -4 6 C-5.98 6.99 -5.98 6.99 -8 8 C-7.34 7.01 -6.68 6.02 -6 5 Z " fill="#1D1D1B" transform="translate(501,482)"/>
<path d="M0 0 C1.32 0.99 2.64 1.98 4 3 C3.34 3.66 2.68 4.32 2 5 C1.01 5 0.02 5 -1 5 C-1.33 4.01 -1.66 3.02 -2 2 C-1.34 1.34 -0.68 0.68 0 0 Z " fill="#0F0E0C" transform="translate(620,376)"/>
<path d="M0 0 C2.50298434 2.93828597 3.46930939 5.17902761 4 9 C3.34 9 2.68 9 2 9 C0.14223235 5.86501708 -0.20140476 3.62528568 0 0 Z " fill="#110F0F" transform="translate(511,374)"/>
<path d="M0 0 C1.32 1.32 2.64 2.64 4 4 C2.35 4.33 0.7 4.66 -1 5 C-1 1 -1 1 0 0 Z " fill="#E8E8E8" transform="translate(492,354)"/>
</svg>
